<svg width="420" height="25" viewBox="0 0 420 25" fill="none" xmlns="http://www.w3.org/2000/svg">
<path fill-rule="evenodd" clip-rule="evenodd" d="M178.379 2.3147C158.647 3.10793 139.147 4.08328 120.131 5.14958C93.2121 6.65801 66.3036 8.21847 39.5573 10.6892C31.1382 11.4694 22.5884 11.9635 14.2219 12.9388C8.96996 13.55 2.00597 14.4211 1.09203 14.6032C0.614006 14.7072 0.40546 14.8634 0.338073 14.9154C-0.135742 15.2795 -0.049288 15.6304 0.218154 15.9035C0.325552 16.0206 0.597129 16.3068 1.35102 16.3458C51.7691 19.0115 103.324 13.81 153.803 13.2639C241.343 12.3276 331.536 16.0467 418.381 24.161C419.139 24.226 419.877 23.9009 419.982 23.4197C420.108 22.9516 419.561 22.4964 418.803 22.4314C331.81 14.3041 241.47 10.572 153.761 11.5213C106.717 12.0284 58.7436 16.5928 11.6338 15.0324C12.7162 14.9023 13.7776 14.7723 14.7463 14.6552C23.0791 13.6799 31.5931 13.1988 39.9785 12.4186C66.668 9.94791 93.5217 8.38746 120.405 6.89204C153.761 5.0195 188.571 3.40703 223.654 2.65281C236.205 2.76984 248.714 2.88693 261.222 3.02997C288.282 3.34206 315.469 4.25233 342.466 5.47468C350.594 5.85178 358.723 6.24186 366.851 6.57996C369.547 6.69699 376.496 7.03503 377.465 7.00903C378.665 6.98302 378.897 6.3589 378.918 6.25487C378.981 6.0208 378.939 5.69569 378.349 5.42261C378.286 5.3836 377.907 5.25348 377.065 5.17546C327.978 0.572138 275.563 -0.194961 223.696 0.910356C168.987 0.429218 114.066 0.221063 59.4955 0C58.7142 0 58.0761 0.390169 58.0698 0.871307C58.0656 1.35244 58.6952 1.74263 59.4764 1.75563C98.9905 1.91167 138.705 2.06763 178.379 2.3147Z" fill="#FF823A"/>
</svg>
