<svg width="33" height="33" viewBox="0 0 33 33" fill="none" xmlns="http://www.w3.org/2000/svg">
<g clip-path="url(#clip0_1_28)">
<path d="M19.6582 16.5C19.6582 18.2467 18.2467 19.6582 16.5 19.6582C14.7533 19.6582 13.3418 18.2467 13.3418 16.5C13.3418 14.7533 14.7533 13.3418 16.5 13.3418C18.2467 13.3418 19.6582 14.7533 19.6582 16.5Z" fill="white" fill-opacity="0.7"/>
<path d="M23.8859 10.912C23.7313 10.4995 23.4928 10.1257 23.177 9.82275C22.874 9.50693 22.5002 9.26846 22.0877 9.11377C21.7525 8.98486 21.2498 8.83018 20.3281 8.78506C19.3291 8.73994 19.0262 8.72705 16.4996 8.72705C13.9666 8.72705 13.6701 8.7335 12.6711 8.78506C11.7494 8.83018 11.2467 8.98486 10.9115 9.11377C10.499 9.26846 10.1252 9.50693 9.82227 9.82275C9.50645 10.1257 9.26797 10.4995 9.11328 10.912C8.98438 11.2472 8.82969 11.7499 8.78457 12.6716C8.73945 13.6706 8.72656 13.9671 8.72656 16.5001C8.72656 19.0331 8.73945 19.3296 8.78457 20.3286C8.82969 21.2503 8.97793 21.753 9.11328 22.0882C9.26797 22.5007 9.50645 22.8745 9.82227 23.1774C10.1252 23.4933 10.499 23.7317 10.9115 23.8864C11.2467 24.0153 11.7494 24.17 12.6711 24.2151C13.6701 24.2603 13.9666 24.2731 16.4996 24.2731C19.0326 24.2731 19.3291 24.2667 20.3281 24.2151C21.2498 24.17 21.7525 24.0218 22.0877 23.8864C22.9127 23.5706 23.5701 22.9132 23.8859 22.0882C24.0148 21.753 24.1695 21.2503 24.2147 20.3286C24.2598 19.3296 24.2727 19.0267 24.2727 16.5001C24.2727 13.9671 24.2662 13.6706 24.2147 12.6716C24.1695 11.7499 24.0148 11.2472 23.8859 10.912ZM16.4996 21.3663C13.8119 21.3663 11.6334 19.1878 11.6334 16.5001C11.6334 13.8124 13.8119 11.6339 16.4996 11.6339C19.1873 11.6339 21.3658 13.8124 21.3658 16.5001C21.3658 19.1878 19.1873 21.3663 16.4996 21.3663ZM21.5592 12.5813C20.934 12.5813 20.4248 12.0722 20.4248 11.447C20.4248 10.8218 20.934 10.3126 21.5592 10.3126C22.1844 10.3126 22.6936 10.8218 22.6936 11.447C22.6936 12.0722 22.1844 12.5813 21.5592 12.5813Z" fill="white" fill-opacity="0.7"/>
<path d="M16.5 0C7.38633 0 0 7.38633 0 16.5C0 25.6137 7.38633 33 16.5 33C25.6137 33 33 25.6137 33 16.5C33 7.38633 25.6137 0 16.5 0ZM25.9166 20.4059C25.8715 21.4113 25.7104 22.101 25.4783 22.7068C24.9885 23.9766 23.983 24.9885 22.7068 25.4783C22.1074 25.7104 21.4178 25.8715 20.4059 25.9166C19.3939 25.9617 19.0717 25.9746 16.5 25.9746C13.9283 25.9746 13.6061 25.9617 12.5941 25.9166C11.5887 25.8715 10.899 25.7104 10.2932 25.4783C9.66152 25.2398 9.08789 24.866 8.61738 24.3826C8.13398 23.9121 7.76016 23.3385 7.52168 22.7068C7.28965 22.1074 7.12852 21.4178 7.0834 20.4059C7.03828 19.3939 7.02539 19.0717 7.02539 16.5C7.02539 13.9283 7.03828 13.6061 7.0834 12.5941C7.12852 11.5887 7.28965 10.899 7.52168 10.2932C7.76016 9.66152 8.13398 9.08789 8.61738 8.61738C9.08789 8.13398 9.66152 7.76016 10.2932 7.52168C10.899 7.28965 11.5822 7.12852 12.5941 7.0834C13.6061 7.03828 13.9283 7.02539 16.5 7.02539C19.0717 7.02539 19.3939 7.03828 20.4059 7.0834C21.4113 7.12852 22.101 7.28965 22.7068 7.52168C23.3385 7.76016 23.9121 8.13398 24.3826 8.61738C24.866 9.08789 25.2398 9.66152 25.4783 10.2932C25.7104 10.899 25.8715 11.5822 25.9166 12.5941C25.9617 13.6061 25.9746 13.9283 25.9746 16.5C25.9746 19.0717 25.9617 19.3939 25.9166 20.4059Z" fill="white" fill-opacity="0.7"/>
</g>
<defs>
<clipPath id="clip0_1_28">
<rect width="33" height="33" fill="white"/>
</clipPath>
</defs>
</svg>
