<svg width="33" height="33" viewBox="0 0 33 33" fill="none" xmlns="http://www.w3.org/2000/svg">
<g clip-path="url(#clip0_1_19)">
<path d="M16.5 0C7.38633 0 0 7.38633 0 16.5C0 25.6137 7.38633 33 16.5 33C25.6137 33 33 25.6137 33 16.5C33 7.38633 25.6137 0 16.5 0ZM24.0346 12.8648C24.041 13.026 24.0475 13.1936 24.0475 13.3547C24.0475 18.3562 20.2383 24.1313 13.2709 24.1313C11.1311 24.1313 9.13945 23.5061 7.46367 22.4297C7.76016 22.4619 8.06309 22.4812 8.36602 22.4812C10.1385 22.4812 11.7756 21.8754 13.0711 20.857C11.4146 20.8248 10.016 19.7291 9.53262 18.2273C9.76465 18.2725 10.0031 18.2982 10.2416 18.2982C10.5896 18.2982 10.9248 18.2531 11.2406 18.1629C9.50684 17.8148 8.20488 16.2873 8.20488 14.4504C8.20488 14.4311 8.20488 14.4182 8.20488 14.3988C8.71406 14.6824 9.30059 14.8564 9.91934 14.8693C8.90098 14.1926 8.23711 13.0324 8.23711 11.7176C8.23711 11.0215 8.42402 10.3705 8.75273 9.81621C10.6219 12.1107 13.4127 13.6125 16.558 13.7736C16.4936 13.4965 16.4613 13.2064 16.4613 12.91C16.4613 10.8217 18.1564 9.12012 20.2512 9.12012C21.3404 9.12012 22.3266 9.57773 23.0162 10.3189C23.8799 10.1514 24.692 9.83555 25.4203 9.39727C25.1367 10.2803 24.5373 11.0215 23.7574 11.492C24.5244 11.4018 25.2527 11.1955 25.9295 10.8926C25.4139 11.666 24.7758 12.3299 24.0346 12.8648Z" fill="white" fill-opacity="0.7"/>
</g>
<defs>
<clipPath id="clip0_1_19">
<rect width="33" height="33" fill="white"/>
</clipPath>
</defs>
</svg>
