<svg width="33" height="33" viewBox="0 0 33 33" fill="none" xmlns="http://www.w3.org/2000/svg">
<path fill-rule="evenodd" clip-rule="evenodd" d="M24.75 17.1229C24.75 18.4583 24.585 19.7938 24.585 19.7938C24.585 19.7938 24.4241 20.9302 23.9291 21.4314C23.3021 22.0883 22.5988 22.0914 22.276 22.1296C19.9671 22.2967 16.5 22.3018 16.5 22.3018C16.5 22.3018 12.21 22.2626 10.89 22.1368C10.5229 22.0677 9.69787 22.0883 9.07087 21.4314C8.57587 20.9302 8.415 19.7938 8.415 19.7938C8.415 19.7938 8.25 18.4583 8.25 17.1229V15.8709C8.25 14.5355 8.415 13.201 8.415 13.201C8.415 13.201 8.57587 12.0636 9.07087 11.5624C9.69787 10.9055 10.4012 10.9024 10.724 10.8642C13.0329 10.6972 16.4969 10.6972 16.4969 10.6972H16.5031C16.5031 10.6972 19.9671 10.6972 22.276 10.8642C22.5988 10.9024 23.3021 10.9055 23.9291 11.5624C24.4241 12.0636 24.585 13.201 24.585 13.201C24.585 13.201 24.75 14.5355 24.75 15.8709V17.1229ZM16.5 0C7.38684 0 0 7.38684 0 16.5C0 25.6121 7.38684 33 16.5 33C25.6132 33 33 25.6121 33 16.5C33 7.38684 25.6132 0 16.5 0Z" fill="white" fill-opacity="0.7"/>
<path fill-rule="evenodd" clip-rule="evenodd" d="M14.796 18.6394L19.254 16.3294L14.7949 14.0029L14.796 18.6394Z" fill="white" fill-opacity="0.7"/>
</svg>
