<svg width="375" height="26" viewBox="0 0 375 26" fill="none" xmlns="http://www.w3.org/2000/svg">
<path fill-rule="evenodd" clip-rule="evenodd" d="M159.575 3.28882C141.986 4.08205 124.603 5.0574 107.652 6.1237C83.6564 7.63213 59.6697 9.19259 35.8277 11.6633C28.3227 12.4435 20.7014 12.9376 13.2433 13.9129C8.56163 14.5241 2.35382 15.3952 1.53913 15.5773C1.11301 15.6813 0.927107 15.8375 0.867037 15.8895C0.444672 16.2536 0.521738 16.6046 0.76014 16.8776C0.855876 16.9947 1.09796 17.2809 1.76999 17.3199C46.7134 19.9857 92.6706 14.7842 137.668 14.238C215.703 13.3017 296.102 17.0208 373.517 25.1351C374.193 25.2002 374.85 24.875 374.944 24.3938C375.057 23.9257 374.569 23.4706 373.893 23.4055C296.346 15.2782 215.815 11.5461 137.631 12.4954C95.6947 13.0025 52.9306 17.5669 10.9363 16.0065C11.9011 15.8765 12.8473 15.7464 13.7108 15.6293C21.1388 14.6541 28.7282 14.173 36.2031 13.3927C59.9945 10.922 83.9323 9.36159 107.896 7.86616C137.631 5.99362 168.661 4.38115 199.934 3.62693C211.122 3.74396 222.273 3.86105 233.423 4.00409C257.545 4.31618 281.78 5.22645 305.845 6.4488C313.091 6.8259 320.337 7.21598 327.583 7.55408C329.985 7.67111 336.18 8.00915 337.044 7.98315C338.114 7.95714 338.32 7.33302 338.339 7.22899C338.395 6.99492 338.358 6.66981 337.832 6.39673C337.776 6.35772 337.438 6.2276 336.687 6.14958C292.93 1.54626 246.207 0.77916 199.972 1.88448C151.203 1.40334 102.246 1.19518 53.6008 0.974121C52.9044 0.974121 52.3356 1.36429 52.33 1.84543C52.3262 2.32657 52.8875 2.71675 53.5839 2.72975C88.8073 2.8858 124.209 3.04175 159.575 3.28882Z" fill="#FF823A"/>
</svg>
