<svg width="70" height="70" viewBox="0 0 70 70" fill="none" xmlns="http://www.w3.org/2000/svg">
<circle opacity="0.06" cx="35" cy="35" r="35" fill="#EE1C47"/>
<path d="M33.2248 34.1082H26.1082C24.9302 34.1082 23.8004 33.6402 22.9674 32.8072C22.1345 31.9743 21.6665 30.8445 21.6665 29.6665V26.1082C21.6665 24.9302 22.1345 23.8004 22.9674 22.9674C23.8004 22.1345 24.9302 21.6665 26.1082 21.6665H29.6665C30.8445 21.6665 31.9743 22.1345 32.8072 22.9674C33.6402 23.8004 34.1082 24.9302 34.1082 26.1082V33.2165C34.1082 33.4516 34.0154 33.6771 33.85 33.8441C33.6845 34.0111 33.4599 34.106 33.2248 34.1082ZM26.1082 23.4415C25.4009 23.4415 24.7226 23.7225 24.2226 24.2226C23.7225 24.7226 23.4415 25.4009 23.4415 26.1082V29.6665C23.4415 30.3737 23.7225 31.052 24.2226 31.5521C24.7226 32.0522 25.4009 32.3332 26.1082 32.3332H32.3332V26.1082C32.3332 25.4009 32.0522 24.7226 31.5521 24.2226C31.052 23.7225 30.3737 23.4415 29.6665 23.4415H26.1082Z" fill="#EE1C47"/>
<path d="M43.8916 34.1082H36.775C36.5385 34.1082 36.3117 34.0142 36.1445 33.847C35.9772 33.6798 35.8833 33.453 35.8833 33.2165V26.1082C35.8833 25.5242 35.9985 24.9459 36.2222 24.4065C36.4459 23.8671 36.7739 23.3771 37.1872 22.9645C37.6005 22.5519 38.0911 22.2249 38.631 22.0022C39.1708 21.7795 39.7493 21.6654 40.3333 21.6665H43.8916C45.0696 21.6665 46.1994 22.1345 47.0324 22.9674C47.8653 23.8004 48.3333 24.9302 48.3333 26.1082V29.6665C48.3333 30.8445 47.8653 31.9743 47.0324 32.8072C46.1994 33.6402 45.0696 34.1082 43.8916 34.1082ZM37.6666 32.3332H43.8916C44.5989 32.3332 45.2772 32.0522 45.7773 31.5521C46.2773 31.052 46.5583 30.3738 46.5583 29.6665V26.1082C46.5583 25.4009 46.2773 24.7227 45.7773 24.2226C45.2772 23.7225 44.5989 23.4415 43.8916 23.4415H40.3333C39.6261 23.4415 38.9478 23.7225 38.4477 24.2226C37.9476 24.7227 37.6666 25.4009 37.6666 26.1082V32.3332Z" fill="#EE1C47"/>
<path d="M29.6665 48.3333H26.1082C24.9302 48.3333 23.8004 47.8653 22.9674 47.0323C22.1345 46.1994 21.6665 45.0696 21.6665 43.8916V40.3333C21.6665 39.1553 22.1345 38.0255 22.9674 37.1925C23.8004 36.3596 24.9302 35.8916 26.1082 35.8916H33.2165C33.453 35.8916 33.6798 35.9855 33.847 36.1528C34.0142 36.32 34.1082 36.5468 34.1082 36.7833V43.8916C34.1082 45.0696 33.6402 46.1994 32.8072 47.0323C31.9743 47.8653 30.8445 48.3333 29.6665 48.3333ZM26.1082 37.6666C25.4009 37.6666 24.7226 37.9476 24.2226 38.4477C23.7225 38.9478 23.4415 39.626 23.4415 40.3333V43.8916C23.4415 44.5989 23.7225 45.2771 24.2226 45.7772C24.7226 46.2773 25.4009 46.5583 26.1082 46.5583H29.6665C30.3737 46.5583 31.052 46.2773 31.5521 45.7772C32.0522 45.2771 32.3332 44.5989 32.3332 43.8916V37.6666H26.1082Z" fill="#EE1C47"/>
<path d="M43.8917 48.3333H40.3333C39.1553 48.3333 38.0256 47.8653 37.1926 47.0324C36.3596 46.1994 35.8917 45.0696 35.8917 43.8916V36.775C35.8917 36.5385 35.9856 36.3117 36.1528 36.1445C36.32 35.9772 36.5468 35.8833 36.7833 35.8833H43.8917C44.4757 35.8833 45.0539 35.9985 45.5933 36.2222C46.1328 36.4459 46.6228 36.7739 47.0353 37.1872C47.4479 37.6005 47.7749 38.0911 47.9976 38.631C48.2204 39.1708 48.3344 39.7493 48.3333 40.3333V43.8916C48.3333 45.0696 47.8654 46.1994 47.0324 47.0324C46.1994 47.8653 45.0697 48.3333 43.8917 48.3333ZM37.6667 37.6666V43.8916C37.6667 44.5989 37.9476 45.2772 38.4477 45.7773C38.9478 46.2773 39.6261 46.5583 40.3333 46.5583H43.8917C44.5989 46.5583 45.2772 46.2773 45.7773 45.7773C46.2774 45.2772 46.5583 44.5989 46.5583 43.8916V40.3333C46.5583 39.6261 46.2774 38.9478 45.7773 38.4477C45.2772 37.9476 44.5989 37.6666 43.8917 37.6666H37.6667Z" fill="#EE1C47"/>
</svg>
