<svg width="70" height="70" viewBox="0 0 70 70" fill="none" xmlns="http://www.w3.org/2000/svg">
<circle opacity="0.06" cx="35" cy="35" r="35" fill="#EE1C47"/>
<path d="M34.9958 20C26.7232 20 20 26.7326 20 35.0042C20 43.2758 26.7232 50 34.9958 50C43.2685 50 49.9937 43.2758 49.9937 35.0042C49.9937 26.7326 43.2685 20 34.9958 20ZM33.9286 22.1973V23.2185C33.9296 23.8078 34.4065 24.2855 34.9958 24.2878C35.5884 24.2899 36.0703 23.811 36.0714 23.2185V22.1973C42.3227 22.7141 47.2859 27.6773 47.8027 33.9286H46.7794C46.1877 33.9307 45.7099 34.4125 45.7122 35.0042C45.7143 35.5927 46.191 36.0691 46.7794 36.0714H47.8027C47.2896 42.3259 42.3255 47.2864 36.0714 47.8027V46.7899C36.0736 46.1949 35.5908 45.712 34.9958 45.7143C34.4041 45.7164 33.9263 46.1982 33.9286 46.7899V47.8027C27.6713 47.2901 22.7099 42.3287 22.1973 36.0714H23.2101C23.8018 36.0736 24.2834 35.5959 24.2857 35.0042C24.2879 34.4092 23.8051 33.9262 23.2101 33.9286H22.1973C22.7136 27.6745 27.6741 22.7104 33.9286 22.1973ZM39.9449 28.651L32.3026 31.702C32.0264 31.8119 31.8077 32.0306 31.6978 32.3068L28.6468 39.9491C28.2953 40.8307 29.1694 41.7047 30.0509 41.3533L37.689 38.2959C37.964 38.1861 38.1819 37.9682 38.2917 37.6933L41.3491 30.0551C41.5066 29.6604 41.4182 29.21 41.1231 28.9042C40.664 28.4596 40.1731 28.5735 39.9449 28.651ZM38.3984 31.5953L36.4523 36.4627L31.5848 38.4089L33.531 33.5414L38.3984 31.5953Z" fill="#EE1C47"/>
</svg>
