<svg width="70" height="70" viewBox="0 0 70 70" fill="none" xmlns="http://www.w3.org/2000/svg">
<circle opacity="0.06" cx="35" cy="35" r="35" fill="#EE1C47"/>
<path d="M37.569 34.9041C36.9492 34.7182 36.5971 34.065 36.783 33.4452C36.9217 32.9824 36.992 32.5002 36.992 32.0117C36.992 29.2656 34.7578 27.0312 32.0115 27.0312C29.2654 27.0312 27.031 29.2656 27.031 32.0117C27.031 34.7578 29.2654 36.9922 32.0115 36.9922C32.4768 36.9922 32.9366 36.9283 33.3786 36.8027C34.0007 36.6251 34.6494 36.9862 34.8265 37.6088C35.0039 38.2311 34.6429 38.8795 34.0204 39.0567C33.3697 39.2419 32.6938 39.3359 32.0115 39.3359C27.9731 39.3359 24.6873 36.0503 24.6873 32.0117C24.6873 27.9731 27.9731 24.6875 32.0115 24.6875C36.0501 24.6875 39.3357 27.9731 39.3357 32.0117C39.3357 32.7283 39.2323 33.437 39.0281 34.1181C38.8422 34.7382 38.189 35.0902 37.569 34.9041ZM35.5235 44.711C35.0293 44.2928 34.29 44.3544 33.8718 44.8483C33.152 45.6989 32.5455 46.4787 32.0115 47.2422C30.7579 45.4501 29.3347 43.8914 27.9518 42.3769C24.9448 39.0839 22.3479 36.2399 22.3438 32.0003C22.3499 26.6758 26.6868 22.3438 32.0115 22.3438C37.3362 22.3438 41.6733 26.6758 41.6795 31.9978C41.679 32.3376 41.6618 32.6768 41.6282 33.0062C41.5627 33.6501 42.0315 34.2252 42.6753 34.2909C43.3189 34.3568 43.8943 33.8879 43.9598 33.2438C44.0015 32.8368 44.0228 32.4184 44.0232 31.9975C44.0195 28.792 42.7682 25.779 40.5005 23.5136C38.2323 21.2479 35.2177 20 32.0115 20C28.8055 20 25.7909 21.2479 23.5227 23.5136C21.2547 25.779 20.0037 28.792 20 32C20.0023 34.3353 20.6509 36.5264 21.9828 38.6983C23.1364 40.579 24.6349 42.2201 26.2212 43.9573C27.7765 45.6606 29.3851 47.4221 30.6696 49.4541C30.8842 49.794 31.2582 50 31.6599 50H32.3631C32.765 50 33.139 49.794 33.3537 49.4543C33.9767 48.4688 34.7098 47.4862 35.6608 46.3626C36.0789 45.8685 36.0174 45.1289 35.5235 44.711ZM49.6123 49.6988C49.3882 49.9007 49.1078 50 48.8284 50C48.5077 50 48.1886 49.8693 47.9572 49.6125L45.0106 46.342C44.2498 46.7682 43.3734 47.0117 42.4412 47.0117C39.5332 47.0117 37.1677 44.646 37.1677 41.7383C37.1677 38.8306 39.5332 36.4648 42.4412 36.4648C45.3489 36.4648 47.7146 38.8306 47.7146 41.7383C47.7146 42.8671 47.3578 43.914 46.7515 44.7728L49.6986 48.0437C50.1316 48.5246 50.0932 49.2655 49.6123 49.6988ZM42.4412 44.668C44.0566 44.668 45.3709 43.3537 45.3709 41.7383C45.3709 40.1228 44.0566 38.8086 42.4412 38.8086C40.8257 38.8086 39.5115 40.1228 39.5115 41.7383C39.5115 43.3537 40.8257 44.668 42.4412 44.668Z" fill="#EE1C47"/>
</svg>
