<svg width="420" height="26" viewBox="0 0 420 26" fill="none" xmlns="http://www.w3.org/2000/svg">
<path fill-rule="evenodd" clip-rule="evenodd" d="M178.379 3.28882C158.647 4.08205 139.147 5.0574 120.131 6.1237C93.2121 7.63213 66.3036 9.19259 39.5573 11.6633C31.1382 12.4435 22.5884 12.9376 14.2219 13.9129C8.96996 14.5241 2.00597 15.3952 1.09203 15.5773C0.614006 15.6813 0.40546 15.8375 0.338073 15.8895C-0.135742 16.2536 -0.049288 16.6046 0.218154 16.8776C0.325552 16.9947 0.597129 17.2809 1.35102 17.3199C51.7691 19.9857 103.324 14.7842 153.803 14.238C241.343 13.3017 331.536 17.0208 418.381 25.1351C419.139 25.2002 419.877 24.875 419.982 24.3938C420.108 23.9257 419.561 23.4706 418.803 23.4055C331.81 15.2782 241.47 11.5461 153.761 12.4954C106.717 13.0025 58.7436 17.5669 11.6338 16.0065C12.7162 15.8765 13.7776 15.7464 14.7463 15.6293C23.0791 14.6541 31.5931 14.173 39.9785 13.3927C66.668 10.922 93.5217 9.36159 120.405 7.86616C153.761 5.99362 188.571 4.38115 223.654 3.62693C236.205 3.74396 248.714 3.86105 261.222 4.00409C288.282 4.31618 315.469 5.22645 342.466 6.4488C350.594 6.8259 358.723 7.21598 366.851 7.55408C369.547 7.67111 376.496 8.00915 377.465 7.98315C378.665 7.95714 378.897 7.33302 378.918 7.22899C378.981 6.99492 378.939 6.66981 378.349 6.39673C378.286 6.35772 377.907 6.2276 377.065 6.14958C327.978 1.54626 275.563 0.77916 223.696 1.88448C168.987 1.40334 114.066 1.19518 59.4955 0.974121C58.7142 0.974121 58.0761 1.36429 58.0698 1.84543C58.0656 2.32657 58.6952 2.71675 59.4764 2.72975C98.9905 2.8858 138.705 3.04175 178.379 3.28882Z" fill="#FF823A"/>
</svg>
