<svg width="10" height="16" viewBox="0 0 10 16" fill="none" xmlns="http://www.w3.org/2000/svg">
<path d="M9.56554 0.448962C9.84373 0.73334 9.99988 1.11803 9.99988 1.51901C9.99988 1.91999 9.84373 2.30468 9.56554 2.58906L4.27808 8.03795L9.56554 13.4109C9.84373 13.6953 9.99988 14.08 9.99988 14.481C9.99988 14.882 9.84373 15.2667 9.56554 15.551C9.42669 15.6933 9.26149 15.8062 9.07948 15.8833C8.89747 15.9603 8.70224 16 8.50506 16C8.30788 16 8.11266 15.9603 7.93065 15.8833C7.74863 15.8062 7.58343 15.6933 7.44458 15.551L1.11158 9.11558C0.971584 8.97448 0.860466 8.80661 0.784636 8.62166C0.708807 8.4367 0.669765 8.23831 0.669765 8.03795C0.669765 7.83758 0.708807 7.63919 0.784636 7.45424C0.860466 7.26928 0.971584 7.10141 1.11158 6.96031L7.44458 0.448963C7.58343 0.306702 7.74863 0.193788 7.93064 0.116732C8.11266 0.039675 8.30788 2.24914e-07 8.50506 1.98704e-07C8.70224 1.72493e-07 8.89746 0.0396749 9.07948 0.116732C9.26149 0.193788 9.42669 0.306702 9.56554 0.448962Z" fill="#676C7B"/>
</svg>
