<svg width="17" height="15" viewBox="0 0 17 15" fill="none" xmlns="http://www.w3.org/2000/svg">
<g clip-path="url(#clip0_1_610)">
<path d="M16.0158 5.78434L11.0681 5.13378L8.85539 1.07703C8.76676 0.914609 8.59435 0.833252 8.42194 0.833252L8.42258 12.5031L12.8473 14.6082C13.2021 14.7767 13.6162 14.5044 13.5486 14.1472L12.7036 9.68801L16.2837 6.53026C16.5708 6.27715 16.4122 5.83654 16.0158 5.78434V5.78434Z" fill="#FFB820"/>
<path d="M11.6645 9.3827C11.6645 9.3827 12.4276 13.4077 12.4302 13.4211C12.4276 13.4208 8.48405 12.5171 8.42249 12.5031C8.42185 12.5028 3.99647 14.6082 3.99647 14.6082C3.64165 14.7767 3.22754 14.5044 3.29522 14.1472L4.1402 9.68801L0.56013 6.53026C0.27299 6.27715 0.431545 5.83654 0.827935 5.78434L5.77571 5.13378L7.9884 1.07703C8.07702 0.914609 8.24944 0.833252 8.42185 0.833252L10.426 5.93335L14.9075 6.52268L11.6645 9.3827Z" fill="#FFD06A"/>
</g>
<defs>
<clipPath id="clip0_1_610">
<rect width="16.0167" height="14.4925" fill="white" transform="translate(0.413513 0.5)"/>
</clipPath>
</defs>
</svg>
