<svg width="130" height="148" viewBox="0 0 130 148" fill="none" xmlns="http://www.w3.org/2000/svg">
<mask id="path-1-outside-1_1_473" maskUnits="userSpaceOnUse" x="-1.9782" y="-1.61462" width="133.782" height="151.717" fill="black">
<rect fill="white" x="-1.9782" y="-1.61462" width="133.782" height="151.717"/>
<path fill-rule="evenodd" clip-rule="evenodd" d="M31.419 90.2176C37.1713 102.371 47.3259 109.132 59.445 115.34C61.4915 116.387 66.5792 118.765 71.0137 119.455C74.1494 119.944 76.9572 119.551 78.3194 117.497C79.5113 115.703 79.1409 113.553 77.8628 111.378C75.0881 106.654 68.0201 101.76 65.7396 100.447C55.4653 94.5405 43.8468 90.7776 32.0793 89.3089C31.7356 88.5573 31.4074 87.7829 31.0963 86.9866C30.1628 84.5864 29.2957 81.6328 29.169 78.7553C29.0452 75.9589 29.6195 73.2299 31.5731 71.193C35.6482 66.9418 43.2037 66.2507 51.4533 67.2549C53.2514 67.4723 55.0804 67.7733 56.9177 68.1381C57.4546 69.2597 58.1421 70.4025 58.9536 71.5535C65.249 80.4839 78.8285 89.9608 83.2702 92.2396C85.2477 93.2544 88.8612 95.1706 92.0781 95.5498C94.3784 95.8214 96.4785 95.32 97.7599 93.3394C98.9026 91.5756 98.5032 89.511 97.2059 87.4357C94.404 82.9548 87.3723 78.3849 85.0006 77.0428C79.6093 73.9891 68.5458 69.5195 57.5807 67.2718C56.5583 64.9903 56.2504 62.8379 57.0389 60.9671C58.1345 58.3646 61.181 57.1559 65.0278 56.7221C66.1881 56.5917 67.4204 56.5324 68.6953 56.5362C68.7704 56.6136 68.8449 56.6883 68.92 56.7657C74.9869 62.9323 84.0819 68.3057 88.295 70.3187C90.1956 71.2278 93.7524 72.6353 96.821 72.6998C99.0106 72.7443 100.951 72.1078 101.999 70.2778C103.075 68.3985 102.253 66.5481 100.63 64.9556C98.4133 62.7849 94.7133 61.093 93.3347 60.4739C89.4537 58.7274 78.253 55.6817 69.121 55.5601C67.374 53.7194 65.9179 51.8133 64.9804 49.9095C63.9878 47.9014 63.5733 45.8983 64.0403 43.9893C65.1964 39.2815 70.1526 37.627 76.0795 37.5055C77.8844 37.4685 79.7796 37.5765 81.6943 37.7955C82.1294 39.6768 83.1877 41.6298 84.654 43.526C88.1105 47.9928 93.8139 52.1698 98.5387 54.3694C100.168 55.129 103.059 56.288 105.538 56.2818C107.33 56.2783 108.91 55.676 109.771 54.024C110.819 52.0173 110.199 50.0451 108.823 48.2869C106.906 45.843 103.508 43.8172 101.723 42.7303C98.2185 40.5981 90.2831 37.9028 82.5156 36.9095C82.4063 36.1277 82.4284 35.3651 82.6052 34.6284C83.2664 31.8544 86.1037 29.5592 92.1261 28.1643C95.0425 27.4903 98.0216 27.1224 101.01 27.3263C105.317 27.6185 109.305 28.7648 113.33 30.2455C113.584 30.3378 113.867 30.2085 113.96 29.9538C114.054 29.7 113.924 29.4163 113.67 29.324C109.557 27.8109 105.478 26.6461 101.078 26.3476C97.9933 26.138 94.9171 26.5134 91.9073 27.2083C85.3525 28.7265 82.372 31.3833 81.651 34.4017C81.4678 35.1732 81.4311 35.9728 81.5215 36.7912C79.6594 36.5867 77.8198 36.4881 76.0623 36.5253C69.6231 36.6571 64.3437 38.6442 63.0892 43.7575C62.1629 47.5347 64.2929 51.6798 67.7894 55.5644C66.7981 55.586 65.838 55.6438 64.9216 55.7472C60.6568 56.2276 57.3501 57.7031 56.1354 60.586C55.3272 62.5066 55.5214 64.7113 56.4404 67.0464C54.8051 66.7348 53.1764 66.4746 51.5726 66.2809C42.9719 65.235 35.1164 66.0816 30.866 70.515C29.1448 72.3098 28.3764 74.5843 28.2083 77.0014C27.9673 80.5236 29.018 84.3494 30.1845 87.3443C30.4264 87.9669 30.6795 88.5777 30.9431 89.1743C29.6286 89.0275 28.3126 88.907 26.9963 88.8181C23.7408 88.5957 19.819 88.4625 16.2881 89.2691C13.876 89.8216 11.646 90.8103 9.91025 92.4855C7.42124 94.8821 6.92483 97.86 7.45492 100.857C7.96637 103.757 9.45093 106.675 10.9584 109.06C17.5565 119.498 27.92 127.318 40.3908 128.997C40.6571 129.033 40.9039 128.845 40.9414 128.576C40.9779 128.309 40.7912 128.061 40.5222 128.026C28.343 126.385 18.231 118.729 11.7866 108.534C10.3422 106.251 8.91043 103.461 8.41868 100.683C7.9463 98.0054 8.36248 95.3348 10.5876 93.1917C12.6058 91.2465 15.3515 90.3198 18.2333 89.9093C21.1841 89.4887 24.2805 89.6146 26.9285 89.7968C28.4265 89.8999 29.9256 90.04 31.419 90.2176ZM82.7266 37.9222C83.1762 39.5669 84.1448 41.2642 85.4289 42.9238C88.7943 47.2744 94.3511 51.3373 98.9529 53.4796C100.489 54.1941 103.205 55.3085 105.537 55.3016C106.952 55.2979 108.225 54.8744 108.905 53.5712C109.76 51.9294 109.177 50.3322 108.05 48.8929C106.208 46.5438 102.928 44.6138 101.212 43.5687C97.8292 41.5114 90.2284 38.9254 82.7266 37.9222ZM70.104 56.5629C76.0757 62.4364 84.677 67.5021 88.7195 69.4348C90.5297 70.3008 93.9184 71.6588 96.8451 71.7185C98.6515 71.7571 100.285 71.3039 101.149 69.7918C101.993 68.3181 101.217 66.9064 99.9436 65.6588C97.8157 63.5734 94.2537 61.9634 92.9316 61.3679C89.2547 59.7143 78.8844 56.8669 70.104 56.5629ZM58.1327 68.3907C58.5895 69.2439 59.1375 70.1112 59.7536 70.9861C65.9569 79.7863 79.3424 89.1217 83.7177 91.3667C85.6237 92.3447 89.0956 94.2086 92.1957 94.5748C94.1055 94.8023 95.8743 94.452 96.9394 92.8067C97.5491 91.8642 97.5765 90.8145 97.2263 89.7259C96.8484 88.5442 96.0374 87.3256 95.0065 86.1319C91.8119 82.433 86.4946 79.0163 84.5165 77.8969C79.306 74.9452 68.7342 70.6575 58.1327 68.3907ZM32.5792 90.3614C38.2798 101.955 48.1656 108.46 59.8924 114.467C61.8871 115.487 66.8447 117.812 71.166 118.486C72.5622 118.703 73.8889 118.75 75.0192 118.507C76.0678 118.281 76.9412 117.806 77.5039 116.956C78.1488 115.984 78.1948 114.886 77.8561 113.739C77.4887 112.499 76.6848 111.21 75.6564 109.945C72.4757 106.035 67.1512 102.391 65.2504 101.299C55.2694 95.561 44.0039 91.868 32.5792 90.3614Z"/>
</mask>
<path fill-rule="evenodd" clip-rule="evenodd" d="M31.419 90.2176C37.1713 102.371 47.3259 109.132 59.445 115.34C61.4915 116.387 66.5792 118.765 71.0137 119.455C74.1494 119.944 76.9572 119.551 78.3194 117.497C79.5113 115.703 79.1409 113.553 77.8628 111.378C75.0881 106.654 68.0201 101.76 65.7396 100.447C55.4653 94.5405 43.8468 90.7776 32.0793 89.3089C31.7356 88.5573 31.4074 87.7829 31.0963 86.9866C30.1628 84.5864 29.2957 81.6328 29.169 78.7553C29.0452 75.9589 29.6195 73.2299 31.5731 71.193C35.6482 66.9418 43.2037 66.2507 51.4533 67.2549C53.2514 67.4723 55.0804 67.7733 56.9177 68.1381C57.4546 69.2597 58.1421 70.4025 58.9536 71.5535C65.249 80.4839 78.8285 89.9608 83.2702 92.2396C85.2477 93.2544 88.8612 95.1706 92.0781 95.5498C94.3784 95.8214 96.4785 95.32 97.7599 93.3394C98.9026 91.5756 98.5032 89.511 97.2059 87.4357C94.404 82.9548 87.3723 78.3849 85.0006 77.0428C79.6093 73.9891 68.5458 69.5195 57.5807 67.2718C56.5583 64.9903 56.2504 62.8379 57.0389 60.9671C58.1345 58.3646 61.181 57.1559 65.0278 56.7221C66.1881 56.5917 67.4204 56.5324 68.6953 56.5362C68.7704 56.6136 68.8449 56.6883 68.92 56.7657C74.9869 62.9323 84.0819 68.3057 88.295 70.3187C90.1956 71.2278 93.7524 72.6353 96.821 72.6998C99.0106 72.7443 100.951 72.1078 101.999 70.2778C103.075 68.3985 102.253 66.5481 100.63 64.9556C98.4133 62.7849 94.7133 61.093 93.3347 60.4739C89.4537 58.7274 78.253 55.6817 69.121 55.5601C67.374 53.7194 65.9179 51.8133 64.9804 49.9095C63.9878 47.9014 63.5733 45.8983 64.0403 43.9893C65.1964 39.2815 70.1526 37.627 76.0795 37.5055C77.8844 37.4685 79.7796 37.5765 81.6943 37.7955C82.1294 39.6768 83.1877 41.6298 84.654 43.526C88.1105 47.9928 93.8139 52.1698 98.5387 54.3694C100.168 55.129 103.059 56.288 105.538 56.2818C107.33 56.2783 108.91 55.676 109.771 54.024C110.819 52.0173 110.199 50.0451 108.823 48.2869C106.906 45.843 103.508 43.8172 101.723 42.7303C98.2185 40.5981 90.2831 37.9028 82.5156 36.9095C82.4063 36.1277 82.4284 35.3651 82.6052 34.6284C83.2664 31.8544 86.1037 29.5592 92.1261 28.1643C95.0425 27.4903 98.0216 27.1224 101.01 27.3263C105.317 27.6185 109.305 28.7648 113.33 30.2455C113.584 30.3378 113.867 30.2085 113.96 29.9538C114.054 29.7 113.924 29.4163 113.67 29.324C109.557 27.8109 105.478 26.6461 101.078 26.3476C97.9933 26.138 94.9171 26.5134 91.9073 27.2083C85.3525 28.7265 82.372 31.3833 81.651 34.4017C81.4678 35.1732 81.4311 35.9728 81.5215 36.7912C79.6594 36.5867 77.8198 36.4881 76.0623 36.5253C69.6231 36.6571 64.3437 38.6442 63.0892 43.7575C62.1629 47.5347 64.2929 51.6798 67.7894 55.5644C66.7981 55.586 65.838 55.6438 64.9216 55.7472C60.6568 56.2276 57.3501 57.7031 56.1354 60.586C55.3272 62.5066 55.5214 64.7113 56.4404 67.0464C54.8051 66.7348 53.1764 66.4746 51.5726 66.2809C42.9719 65.235 35.1164 66.0816 30.866 70.515C29.1448 72.3098 28.3764 74.5843 28.2083 77.0014C27.9673 80.5236 29.018 84.3494 30.1845 87.3443C30.4264 87.9669 30.6795 88.5777 30.9431 89.1743C29.6286 89.0275 28.3126 88.907 26.9963 88.8181C23.7408 88.5957 19.819 88.4625 16.2881 89.2691C13.876 89.8216 11.646 90.8103 9.91025 92.4855C7.42124 94.8821 6.92483 97.86 7.45492 100.857C7.96637 103.757 9.45093 106.675 10.9584 109.06C17.5565 119.498 27.92 127.318 40.3908 128.997C40.6571 129.033 40.9039 128.845 40.9414 128.576C40.9779 128.309 40.7912 128.061 40.5222 128.026C28.343 126.385 18.231 118.729 11.7866 108.534C10.3422 106.251 8.91043 103.461 8.41868 100.683C7.9463 98.0054 8.36248 95.3348 10.5876 93.1917C12.6058 91.2465 15.3515 90.3198 18.2333 89.9093C21.1841 89.4887 24.2805 89.6146 26.9285 89.7968C28.4265 89.8999 29.9256 90.04 31.419 90.2176ZM82.7266 37.9222C83.1762 39.5669 84.1448 41.2642 85.4289 42.9238C88.7943 47.2744 94.3511 51.3373 98.9529 53.4796C100.489 54.1941 103.205 55.3085 105.537 55.3016C106.952 55.2979 108.225 54.8744 108.905 53.5712C109.76 51.9294 109.177 50.3322 108.05 48.8929C106.208 46.5438 102.928 44.6138 101.212 43.5687C97.8292 41.5114 90.2284 38.9254 82.7266 37.9222ZM70.104 56.5629C76.0757 62.4364 84.677 67.5021 88.7195 69.4348C90.5297 70.3008 93.9184 71.6588 96.8451 71.7185C98.6515 71.7571 100.285 71.3039 101.149 69.7918C101.993 68.3181 101.217 66.9064 99.9436 65.6588C97.8157 63.5734 94.2537 61.9634 92.9316 61.3679C89.2547 59.7143 78.8844 56.8669 70.104 56.5629ZM58.1327 68.3907C58.5895 69.2439 59.1375 70.1112 59.7536 70.9861C65.9569 79.7863 79.3424 89.1217 83.7177 91.3667C85.6237 92.3447 89.0956 94.2086 92.1957 94.5748C94.1055 94.8023 95.8743 94.452 96.9394 92.8067C97.5491 91.8642 97.5765 90.8145 97.2263 89.7259C96.8484 88.5442 96.0374 87.3256 95.0065 86.1319C91.8119 82.433 86.4946 79.0163 84.5165 77.8969C79.306 74.9452 68.7342 70.6575 58.1327 68.3907ZM32.5792 90.3614C38.2798 101.955 48.1656 108.46 59.8924 114.467C61.8871 115.487 66.8447 117.812 71.166 118.486C72.5622 118.703 73.8889 118.75 75.0192 118.507C76.0678 118.281 76.9412 117.806 77.5039 116.956C78.1488 115.984 78.1948 114.886 77.8561 113.739C77.4887 112.499 76.6848 111.21 75.6564 109.945C72.4757 106.035 67.1512 102.391 65.2504 101.299C55.2694 95.561 44.0039 91.868 32.5792 90.3614Z" fill="#FF823A"/>
<path fill-rule="evenodd" clip-rule="evenodd" d="M31.419 90.2176C37.1713 102.371 47.3259 109.132 59.445 115.34C61.4915 116.387 66.5792 118.765 71.0137 119.455C74.1494 119.944 76.9572 119.551 78.3194 117.497C79.5113 115.703 79.1409 113.553 77.8628 111.378C75.0881 106.654 68.0201 101.76 65.7396 100.447C55.4653 94.5405 43.8468 90.7776 32.0793 89.3089C31.7356 88.5573 31.4074 87.7829 31.0963 86.9866C30.1628 84.5864 29.2957 81.6328 29.169 78.7553C29.0452 75.9589 29.6195 73.2299 31.5731 71.193C35.6482 66.9418 43.2037 66.2507 51.4533 67.2549C53.2514 67.4723 55.0804 67.7733 56.9177 68.1381C57.4546 69.2597 58.1421 70.4025 58.9536 71.5535C65.249 80.4839 78.8285 89.9608 83.2702 92.2396C85.2477 93.2544 88.8612 95.1706 92.0781 95.5498C94.3784 95.8214 96.4785 95.32 97.7599 93.3394C98.9026 91.5756 98.5032 89.511 97.2059 87.4357C94.404 82.9548 87.3723 78.3849 85.0006 77.0428C79.6093 73.9891 68.5458 69.5195 57.5807 67.2718C56.5583 64.9903 56.2504 62.8379 57.0389 60.9671C58.1345 58.3646 61.181 57.1559 65.0278 56.7221C66.1881 56.5917 67.4204 56.5324 68.6953 56.5362C68.7704 56.6136 68.8449 56.6883 68.92 56.7657C74.9869 62.9323 84.0819 68.3057 88.295 70.3187C90.1956 71.2278 93.7524 72.6353 96.821 72.6998C99.0106 72.7443 100.951 72.1078 101.999 70.2778C103.075 68.3985 102.253 66.5481 100.63 64.9556C98.4133 62.7849 94.7133 61.093 93.3347 60.4739C89.4537 58.7274 78.253 55.6817 69.121 55.5601C67.374 53.7194 65.9179 51.8133 64.9804 49.9095C63.9878 47.9014 63.5733 45.8983 64.0403 43.9893C65.1964 39.2815 70.1526 37.627 76.0795 37.5055C77.8844 37.4685 79.7796 37.5765 81.6943 37.7955C82.1294 39.6768 83.1877 41.6298 84.654 43.526C88.1105 47.9928 93.8139 52.1698 98.5387 54.3694C100.168 55.129 103.059 56.288 105.538 56.2818C107.33 56.2783 108.91 55.676 109.771 54.024C110.819 52.0173 110.199 50.0451 108.823 48.2869C106.906 45.843 103.508 43.8172 101.723 42.7303C98.2185 40.5981 90.2831 37.9028 82.5156 36.9095C82.4063 36.1277 82.4284 35.3651 82.6052 34.6284C83.2664 31.8544 86.1037 29.5592 92.1261 28.1643C95.0425 27.4903 98.0216 27.1224 101.01 27.3263C105.317 27.6185 109.305 28.7648 113.33 30.2455C113.584 30.3378 113.867 30.2085 113.96 29.9538C114.054 29.7 113.924 29.4163 113.67 29.324C109.557 27.8109 105.478 26.6461 101.078 26.3476C97.9933 26.138 94.9171 26.5134 91.9073 27.2083C85.3525 28.7265 82.372 31.3833 81.651 34.4017C81.4678 35.1732 81.4311 35.9728 81.5215 36.7912C79.6594 36.5867 77.8198 36.4881 76.0623 36.5253C69.6231 36.6571 64.3437 38.6442 63.0892 43.7575C62.1629 47.5347 64.2929 51.6798 67.7894 55.5644C66.7981 55.586 65.838 55.6438 64.9216 55.7472C60.6568 56.2276 57.3501 57.7031 56.1354 60.586C55.3272 62.5066 55.5214 64.7113 56.4404 67.0464C54.8051 66.7348 53.1764 66.4746 51.5726 66.2809C42.9719 65.235 35.1164 66.0816 30.866 70.515C29.1448 72.3098 28.3764 74.5843 28.2083 77.0014C27.9673 80.5236 29.018 84.3494 30.1845 87.3443C30.4264 87.9669 30.6795 88.5777 30.9431 89.1743C29.6286 89.0275 28.3126 88.907 26.9963 88.8181C23.7408 88.5957 19.819 88.4625 16.2881 89.2691C13.876 89.8216 11.646 90.8103 9.91025 92.4855C7.42124 94.8821 6.92483 97.86 7.45492 100.857C7.96637 103.757 9.45093 106.675 10.9584 109.06C17.5565 119.498 27.92 127.318 40.3908 128.997C40.6571 129.033 40.9039 128.845 40.9414 128.576C40.9779 128.309 40.7912 128.061 40.5222 128.026C28.343 126.385 18.231 118.729 11.7866 108.534C10.3422 106.251 8.91043 103.461 8.41868 100.683C7.9463 98.0054 8.36248 95.3348 10.5876 93.1917C12.6058 91.2465 15.3515 90.3198 18.2333 89.9093C21.1841 89.4887 24.2805 89.6146 26.9285 89.7968C28.4265 89.8999 29.9256 90.04 31.419 90.2176ZM82.7266 37.9222C83.1762 39.5669 84.1448 41.2642 85.4289 42.9238C88.7943 47.2744 94.3511 51.3373 98.9529 53.4796C100.489 54.1941 103.205 55.3085 105.537 55.3016C106.952 55.2979 108.225 54.8744 108.905 53.5712C109.76 51.9294 109.177 50.3322 108.05 48.8929C106.208 46.5438 102.928 44.6138 101.212 43.5687C97.8292 41.5114 90.2284 38.9254 82.7266 37.9222ZM70.104 56.5629C76.0757 62.4364 84.677 67.5021 88.7195 69.4348C90.5297 70.3008 93.9184 71.6588 96.8451 71.7185C98.6515 71.7571 100.285 71.3039 101.149 69.7918C101.993 68.3181 101.217 66.9064 99.9436 65.6588C97.8157 63.5734 94.2537 61.9634 92.9316 61.3679C89.2547 59.7143 78.8844 56.8669 70.104 56.5629ZM58.1327 68.3907C58.5895 69.2439 59.1375 70.1112 59.7536 70.9861C65.9569 79.7863 79.3424 89.1217 83.7177 91.3667C85.6237 92.3447 89.0956 94.2086 92.1957 94.5748C94.1055 94.8023 95.8743 94.452 96.9394 92.8067C97.5491 91.8642 97.5765 90.8145 97.2263 89.7259C96.8484 88.5442 96.0374 87.3256 95.0065 86.1319C91.8119 82.433 86.4946 79.0163 84.5165 77.8969C79.306 74.9452 68.7342 70.6575 58.1327 68.3907ZM32.5792 90.3614C38.2798 101.955 48.1656 108.46 59.8924 114.467C61.8871 115.487 66.8447 117.812 71.166 118.486C72.5622 118.703 73.8889 118.75 75.0192 118.507C76.0678 118.281 76.9412 117.806 77.5039 116.956C78.1488 115.984 78.1948 114.886 77.8561 113.739C77.4887 112.499 76.6848 111.21 75.6564 109.945C72.4757 106.035 67.1512 102.391 65.2504 101.299C55.2694 95.561 44.0039 91.868 32.5792 90.3614Z" stroke="#FF823A" stroke-width="2" mask="url(#path-1-outside-1_1_473)"/>
</svg>
