<svg width="127" height="93" viewBox="0 0 127 93" fill="none" xmlns="http://www.w3.org/2000/svg">
<path d="M80.5736 82.0663L80.5736 82.0663L80.5759 82.0669C82.1295 82.4698 83.6886 82.8554 85.2464 83.2406C93.6113 85.3093 101.938 87.3686 109.176 92.0466L109.178 92.0475C109.926 92.5275 110.923 92.3158 111.41 91.5665L111.411 91.5636C111.89 90.8156 111.682 89.8175 110.933 89.33L110.932 89.329C103.295 84.3948 94.502 82.2101 85.8667 80.0647C84.3668 79.6921 82.8718 79.3206 81.3884 78.9361C80.5233 78.7081 79.6411 79.2338 79.4188 80.0957C79.1904 80.9636 79.7175 81.8399 80.5736 82.0663Z" fill="white" stroke="white"/>
<path d="M96.7049 62.2394L96.7049 62.2394C96.7218 63.1273 96.0208 63.8704 95.1262 63.8918L96.7049 62.2394ZM96.7049 62.2394L96.7048 62.2359M96.7049 62.2394L96.7048 62.2359M96.7048 62.2359C96.6816 61.3454 95.9414 60.6373 95.0514 60.6597C90.2547 60.7762 85.9703 62.2494 81.8399 64.5879C81.0631 65.0259 80.7851 66.0118 81.226 66.7907C81.662 67.5671 82.651 67.8432 83.4255 67.4023C87.1251 65.3065 90.9109 63.9948 95.126 63.8918L96.7048 62.2359Z" fill="white" stroke="white"/>
<path d="M81.8546 33.8888C81.5551 34.4263 80.8743 34.6168 80.3364 34.3136L81.8546 33.8888ZM81.8546 33.8888L82.2903 34.1341C84.7836 29.7056 88.3649 26.6353 93.161 24.9283L93.1613 24.9282M81.8546 33.8888L82.2914 34.1322C81.8562 34.9131 80.8688 35.1877 80.0909 34.7491L80.0903 34.7488C79.318 34.312 79.0378 33.325 79.4783 32.5466C82.3609 27.4274 86.5285 23.8595 92.0814 21.8817L93.1613 24.9282M93.1613 24.9282C93.9994 24.6294 94.4411 23.7057 94.1414 22.8639M93.1613 24.9282L94.1414 22.8639M94.1414 22.8639C93.8459 22.0225 92.9207 21.5826 92.0815 21.8817L94.1414 22.8639Z" fill="white" stroke="white"/>
<path d="M30.4486 23.777L30.4489 23.7772C31.5608 24.7136 32.6457 24.9219 33.6033 24.694C34.516 24.4778 35.2956 23.8392 35.8852 22.9574L35.8853 22.9573C36.4476 22.1157 36.8517 21.0122 37.1173 19.941C37.3552 18.9815 37.4899 18.0155 37.5206 17.233C38.544 16.5916 39.6234 16.0406 40.7438 15.5826C49.6065 11.9602 60.4204 16.523 67.2582 26.8173C68.3996 28.5364 69.0093 30.9688 69.2279 33.8602C69.4459 36.7428 69.2717 40.0289 68.8886 43.4135L68.8886 43.4136C67.8522 52.5804 65.172 62.3217 63.9058 66.9237C63.7159 67.614 63.5578 68.1886 63.4418 68.6284L63.4415 68.6295C63.3289 69.0603 63.2614 69.4147 63.2246 69.6815C63.2062 69.8146 63.195 69.9291 63.1901 70.0226C63.186 70.0994 63.1836 70.2015 63.1994 70.2911C63.3293 71.0501 63.8263 71.3681 64.1511 71.5122L64.156 71.5143C64.6151 71.712 65.036 71.7133 65.3966 71.6213L65.3994 71.6206C65.8921 71.4918 66.3342 71.1674 66.6265 70.6211L66.6282 70.6177C66.7856 70.3182 66.8955 69.9169 66.9758 69.5334L66.9768 69.5283C66.9921 69.4511 67.0041 69.3741 67.0143 69.3063C67.0251 69.2347 67.0334 69.1763 67.0432 69.1191C67.0528 69.0628 67.0618 69.0203 67.0708 68.9876C67.0793 68.957 67.0851 68.9453 67.0851 68.9453C67.6148 67.994 68.1916 67.0759 68.7783 66.1422C68.8639 66.0059 68.9497 65.8693 69.0356 65.7322L69.0362 65.7313C71.2646 62.1579 73.827 58.9134 76.5889 55.7061L76.21 55.3798L76.5889 55.706C77.3307 54.8445 78.0715 53.9787 78.8134 53.1118C86.8981 43.664 95.109 34.0688 106.049 28.1264L106.049 28.1263C106.829 27.7021 107.126 26.7223 106.7 25.9357C106.277 25.1488 105.297 24.8611 104.512 25.2834L104.511 25.2843C93.0854 31.4885 84.5139 41.4943 76.2222 51.1737C75.5281 51.984 74.8359 52.792 74.1441 53.5953L74.1441 53.5954C72.3716 55.6543 70.6706 57.738 69.0789 59.9157C70.4024 54.4794 71.8176 47.6791 72.3329 41.374C72.601 38.097 72.6146 34.9384 72.2602 32.1424C71.9065 29.3517 71.1818 26.8865 69.9462 25.0252L69.9461 25.0251C62.2817 13.486 49.8448 8.36905 39.5257 12.5893L39.5255 12.5893C38.6271 12.9571 37.7474 13.3771 36.8968 13.8491C34.0155 4.77053 25.0791 -0.618635 15.6042 1.2975C14.7268 1.47386 14.1646 2.32819 14.3376 3.20009L14.3376 3.20009L14.3383 3.20331C14.5174 4.07578 15.3647 4.64352 16.2418 4.46743L16.2425 4.46729C24.3617 2.82537 31.9834 7.67187 34.0681 15.6959C33.0704 16.4585 32.1326 17.3059 31.2773 18.2372C30.8588 18.6922 30.0439 19.7167 29.7156 20.7273C29.3534 21.8302 29.4956 22.9733 30.4486 23.777ZM32.874 21.5426C32.8709 21.5415 32.8671 21.54 32.8626 21.538C33.0402 21.1688 33.3241 20.8016 33.5385 20.5534C33.4354 20.7749 33.3232 20.9794 33.2024 21.1593L33.2021 21.1598C33.1074 21.3012 33.0357 21.3997 32.9678 21.4689C32.9213 21.5164 32.8909 21.535 32.874 21.5426Z" fill="white" stroke="white"/>
</svg>
