<svg width="420" height="26" viewBox="0 0 420 26" fill="none" xmlns="http://www.w3.org/2000/svg">
<path fill-rule="evenodd" clip-rule="evenodd" d="M178.379 3.28907C158.647 4.08229 139.147 5.05764 120.131 6.12395C93.2121 7.63238 66.3036 9.19284 39.5573 11.6635C31.1382 12.4438 22.5884 12.9379 14.2219 13.9132C8.96996 14.5243 2.00597 15.3955 1.09203 15.5775C0.614006 15.6816 0.40546 15.8377 0.338073 15.8898C-0.135742 16.2539 -0.049288 16.6048 0.218154 16.8779C0.325552 16.9949 0.597129 17.2811 1.35102 17.3201C51.7691 19.9859 103.324 14.7844 153.803 14.2383C241.343 13.302 331.536 17.0211 418.381 25.1354C419.139 25.2004 419.877 24.8752 419.982 24.3941C420.108 23.9259 419.561 23.4708 418.803 23.4058C331.81 15.2785 241.47 11.5464 153.761 12.4956C106.717 13.0028 58.7436 17.5672 11.6338 16.0067C12.7162 15.8767 13.7776 15.7466 14.7463 15.6296C23.0791 14.6543 31.5931 14.1732 39.9785 13.393C66.668 10.9223 93.5217 9.36183 120.405 7.8664C153.761 5.99387 188.571 4.38139 223.654 3.62718C236.205 3.74421 248.714 3.86129 261.222 4.00433C288.282 4.31642 315.469 5.22669 342.466 6.44904C350.594 6.82615 358.723 7.21623 366.851 7.55433C369.547 7.67136 376.496 8.0094 377.465 7.98339C378.665 7.95738 378.897 7.33326 378.918 7.22923C378.981 6.99516 378.939 6.67005 378.349 6.39697C378.286 6.35796 377.907 6.22784 377.065 6.14982C327.978 1.5465 275.563 0.779405 223.696 1.88472C168.987 1.40358 114.066 1.19543 59.4955 0.974365C58.7142 0.974365 58.0761 1.36453 58.0698 1.84567C58.0656 2.32681 58.6952 2.71699 59.4764 2.72999C98.9905 2.88604 138.705 3.042 178.379 3.28907Z" fill="#FF823A"/>
</svg>
