<svg width="45" height="41" viewBox="0 0 45 41" fill="none" xmlns="http://www.w3.org/2000/svg">
<path d="M34.8221 35.8381H10.045C9.67996 35.8381 9.32986 35.7069 9.07173 35.4733C8.8136 35.2398 8.66858 34.923 8.66858 34.5927V7.19272C8.66858 6.8624 8.8136 6.54562 9.07173 6.31205C9.32986 6.07848 9.67996 5.94727 10.045 5.94727H26.5635L36.1986 14.6654V34.5927C36.1986 34.7562 36.163 34.9182 36.0938 35.0693C36.0246 35.2204 35.9232 35.3577 35.7954 35.4733C35.6676 35.589 35.5159 35.6807 35.3489 35.7433C35.1819 35.8059 35.0029 35.8381 34.8221 35.8381Z" stroke="#EE1C47" stroke-width="1.5" stroke-linecap="round" stroke-linejoin="round"/>
<path d="M26.5637 5.94727V14.6654H36.2001" stroke="#EE1C47" stroke-width="1.5" stroke-linecap="round" stroke-linejoin="round"/>
<path d="M16.9286 22.1382H27.9401" stroke="#EE1C47" stroke-width="1.5" stroke-linecap="round" stroke-linejoin="round"/>
<path d="M16.9286 27.1199H27.9401" stroke="#EE1C47" stroke-width="1.5" stroke-linecap="round" stroke-linejoin="round"/>
</svg>
