<svg width="45" height="45" viewBox="0 0 45 45" fill="none" xmlns="http://www.w3.org/2000/svg">
<path d="M22.7062 24.3406C25.7438 24.3406 28.2062 21.8781 28.2062 18.8406C28.2062 15.803 25.7438 13.3406 22.7062 13.3406C19.6687 13.3406 17.2062 15.803 17.2062 18.8406C17.2062 21.8781 19.6687 24.3406 22.7062 24.3406Z" stroke="#EE1C47" stroke-width="1.5" stroke-linecap="round" stroke-linejoin="round"/>
<path d="M36.4562 18.8406C36.4562 31.2156 22.7062 40.8406 22.7062 40.8406C22.7062 40.8406 8.95624 31.2156 8.95624 18.8406C8.95624 15.1938 10.4049 11.6965 12.9835 9.11786C15.5621 6.53923 19.0595 5.09058 22.7062 5.09058C26.353 5.09058 29.8503 6.53923 32.429 9.11786C35.0076 11.6965 36.4562 15.1938 36.4562 18.8406V18.8406Z" stroke="#EE1C47" stroke-width="1.5" stroke-linecap="round" stroke-linejoin="round"/>
</svg>
